<?xml version="1.0" encoding="utf-8"?>
<!-- Generator: Adobe Illustrator 26.1.0, SVG Export Plug-In . SVG Version: 6.00 Build 0)  -->
<svg version="1.1" id="Ebene_1" xmlns="http://www.w3.org/2000/svg" xmlns:xlink="http://www.w3.org/1999/xlink" x="0px" y="0px"
	 viewBox="0 0 289.4 53.5" style="enable-background:new 0 0 289.4 53.5;" xml:space="preserve">
<style type="text/css">
	.st0{fill:#2D5096;}
	.st1{fill:none;}
</style>
<g>
	<g>
		<path class="st0" d="M107.7,20.9c-0.8-0.9-1.7-1.6-2.8-2.1c-1.1-0.5-2.4-0.7-3.8-0.7c-1.5,0-2.8,0.3-4,0.8
			c-1.2,0.6-2.3,1.3-3.2,2.4c-0.9,1-1.6,2.2-2.1,3.6c-0.5,1.4-0.8,2.9-0.8,4.5c0,1.7,0.3,3.2,0.8,4.5c0.5,1.4,1.2,2.6,2.1,3.6
			c0.9,1,1.9,1.8,3.2,2.4s2.5,0.8,3.9,0.8c1.6,0,3-0.3,4.2-1c1.2-0.7,2.2-1.6,3-2.8l6.5,4.8c-1.5,2.1-3.4,3.6-5.7,4.6
			c-2.3,1-4.6,1.5-7,1.5c-2.7,0-5.3-0.4-7.6-1.3c-2.3-0.9-4.3-2.1-6-3.7c-1.7-1.6-3-3.5-3.9-5.8c-0.9-2.3-1.4-4.8-1.4-7.6
			s0.5-5.4,1.4-7.6c0.9-2.3,2.3-4.2,3.9-5.8c1.7-1.6,3.7-2.8,6-3.7c2.3-0.9,4.8-1.3,7.6-1.3c1,0,2,0.1,3.1,0.3
			c1.1,0.2,2.1,0.5,3.2,0.9c1,0.4,2,0.9,3,1.6c1,0.7,1.8,1.5,2.6,2.4L107.7,20.9z"/>
		<path class="st0" d="M116.4,10.9h7.4v36h-7.4V10.9z"/>
		<path class="st0" d="M125.8,34.8c0-1.9,0.3-3.7,1-5.2c0.7-1.6,1.6-2.9,2.9-4c1.2-1.1,2.6-2,4.3-2.6c1.6-0.6,3.4-0.9,5.2-0.9
			s3.6,0.3,5.2,0.9c1.6,0.6,3.1,1.4,4.3,2.6c1.2,1.1,2.2,2.4,2.9,4c0.7,1.6,1,3.3,1,5.2c0,1.9-0.3,3.7-1,5.2c-0.7,1.6-1.6,2.9-2.9,4
			c-1.2,1.1-2.6,2-4.3,2.6c-1.6,0.6-3.4,0.9-5.2,0.9s-3.6-0.3-5.2-0.9c-1.6-0.6-3.1-1.4-4.3-2.6c-1.2-1.1-2.2-2.4-2.9-4
			C126.1,38.5,125.8,36.8,125.8,34.8z M133.2,34.8c0,1.8,0.5,3.3,1.6,4.4c1,1.1,2.5,1.7,4.4,1.7c1.9,0,3.3-0.6,4.4-1.7
			c1-1.1,1.6-2.6,1.6-4.4c0-1.8-0.5-3.3-1.6-4.4c-1-1.1-2.5-1.7-4.4-1.7c-1.9,0-3.3,0.6-4.4,1.7C133.8,31.6,133.2,33,133.2,34.8z"/>
		<path class="st0" d="M177.7,46.9h-7.1v-3.3h-0.1c-0.3,0.5-0.6,0.9-1,1.4c-0.4,0.5-0.9,0.9-1.5,1.2c-0.6,0.4-1.3,0.7-2,0.9
			c-0.8,0.2-1.6,0.3-2.5,0.3c-1.9,0-3.4-0.3-4.6-0.9c-1.2-0.6-2.1-1.4-2.7-2.4c-0.6-1-1.1-2.2-1.3-3.6c-0.2-1.4-0.3-2.9-0.3-4.5
			V22.8h7.4v11.8c0,0.7,0,1.4,0.1,2.2c0,0.7,0.2,1.4,0.4,2.1c0.2,0.6,0.6,1.1,1.1,1.5c0.5,0.4,1.2,0.6,2.2,0.6s1.7-0.2,2.3-0.5
			c0.6-0.3,1.1-0.8,1.4-1.4c0.3-0.6,0.5-1.2,0.6-2c0.1-0.7,0.1-1.5,0.1-2.3v-12h7.4V46.9z"/>
		<path class="st0" d="M206.3,46.9h-6.8v-3.2h-0.1c-0.3,0.4-0.7,0.9-1.2,1.3c-0.5,0.4-1,0.9-1.7,1.2c-0.6,0.4-1.4,0.7-2.1,0.9
			c-0.8,0.2-1.6,0.3-2.4,0.3c-1.8,0-3.4-0.3-4.9-0.9c-1.5-0.6-2.7-1.5-3.7-2.6c-1-1.1-1.8-2.4-2.4-3.9c-0.6-1.5-0.8-3.2-0.8-5
			c0-1.7,0.3-3.3,0.8-4.8c0.5-1.5,1.2-2.9,2.2-4.1c0.9-1.2,2.1-2.1,3.4-2.9c1.4-0.7,2.9-1.1,4.6-1.1c1.6,0,3,0.2,4.3,0.7
			c1.3,0.5,2.4,1.3,3.3,2.5h0.1V10.9h7.4V46.9z M199.4,34.8c0-1.8-0.5-3.3-1.6-4.4c-1-1.1-2.5-1.7-4.4-1.7s-3.3,0.6-4.4,1.7
			c-1,1.1-1.6,2.6-1.6,4.4c0,1.8,0.5,3.3,1.6,4.4c1,1.1,2.5,1.7,4.4,1.7s3.3-0.6,4.4-1.7C198.9,38.1,199.4,36.7,199.4,34.8z"/>
		<path class="st0" d="M209.5,10.9h7.7v28.9h14.3v7.1h-22.1V10.9z"/>
		<path class="st0" d="M249.6,43.9L249.6,43.9c-0.9,1.3-2,2.2-3.4,2.8c-1.4,0.6-2.8,0.8-4.3,0.8c-1.1,0-2.2-0.2-3.3-0.5
			c-1-0.3-2-0.8-2.8-1.4c-0.8-0.6-1.4-1.4-1.9-2.3c-0.5-0.9-0.7-2-0.7-3.2c0-1.4,0.3-2.6,0.8-3.5c0.5-1,1.2-1.8,2.1-2.4
			c0.9-0.6,1.9-1.1,3-1.5c1.1-0.3,2.3-0.6,3.5-0.8c1.2-0.2,2.4-0.3,3.6-0.3c1.2,0,2.3,0,3.3,0c0-1.3-0.5-2.4-1.4-3.2
			c-0.9-0.8-2.1-1.2-3.3-1.2c-1.2,0-2.3,0.3-3.3,0.8c-1,0.5-1.9,1.2-2.7,2.1l-4-4.1c1.4-1.3,3-2.3,4.9-2.9c1.9-0.6,3.8-1,5.8-1
			c2.2,0,4,0.3,5.4,0.8c1.4,0.5,2.5,1.3,3.4,2.4s1.4,2.4,1.8,3.9c0.3,1.5,0.5,3.3,0.5,5.3v12.3h-6.8V43.9z M247.7,36.3
			c-0.6,0-1.3,0-2.1,0.1c-0.8,0-1.7,0.2-2.4,0.4c-0.8,0.2-1.4,0.6-2,1c-0.5,0.5-0.8,1.1-0.8,1.9c0,0.9,0.4,1.6,1.1,2
			c0.8,0.4,1.6,0.6,2.4,0.6c0.7,0,1.4-0.1,2.1-0.3c0.7-0.2,1.3-0.5,1.8-0.8c0.5-0.4,1-0.8,1.3-1.4c0.3-0.6,0.5-1.2,0.5-2v-1.6H247.7
			z"/>
		<path class="st0" d="M258.8,10.9h7.4v14.5h0.1c0.9-1.2,2-2,3.3-2.5c1.3-0.5,2.8-0.7,4.3-0.7c1.7,0,3.3,0.4,4.6,1.1
			c1.4,0.7,2.5,1.7,3.4,2.9c0.9,1.2,1.7,2.6,2.2,4.1c0.5,1.5,0.8,3.2,0.8,4.8c0,1.8-0.3,3.5-0.8,5c-0.6,1.5-1.4,2.8-2.4,3.9
			c-1,1.1-2.3,2-3.7,2.6c-1.5,0.6-3.1,0.9-4.9,0.9c-0.9,0-1.7-0.1-2.4-0.3c-0.8-0.2-1.5-0.5-2.1-0.9c-0.6-0.4-1.2-0.8-1.7-1.2
			c-0.5-0.4-0.9-0.9-1.2-1.3h-0.1v3.2h-6.8V10.9z M265.6,34.8c0,1.8,0.5,3.3,1.6,4.4c1,1.1,2.5,1.7,4.4,1.7c1.9,0,3.3-0.6,4.4-1.7
			c1-1.1,1.6-2.6,1.6-4.4c0-1.8-0.5-3.3-1.6-4.4c-1-1.1-2.5-1.7-4.4-1.7c-1.9,0-3.3,0.6-4.4,1.7C266.1,31.6,265.6,33,265.6,34.8z"/>
	</g>
	<g>
		<path class="st0" d="M66.9,24c-0.5-3.8-2.2-7.4-5-10.2c-3.3-3.3-8-5.1-12.6-5.1h-0.1c-0.6,0-1.1,0-1.6,0.1
			c-4.3-4.5-10.1-7.2-16.4-7.2c-6.2,0-11.9,2.6-16.1,6.6c-4.2,4.1-7,9.7-7.3,15.8C3.8,27,1.5,31.2,1.5,36.3
			c0,8.1,6.4,14.6,14.5,15.4l0.3,0h0.3l38.9,0.1c0,0,1.6,0.1,4.2-0.5C67.2,49.7,72,43.5,72,35.9C72,31.4,70.1,27.1,66.9,24z
			 M60.2,28.1c2.7,1.5,4.4,4.5,4.4,7.8c0,1.8-0.5,3.4-1.4,4.7c0,0.1-0.1,0.2-0.2,0.3c-0.3,0.5-0.6,0.9-1,1.3c0,0,0,0,0,0l0,0
			c-0.1,0.1-0.2,0.2-0.3,0.3c0,0,0,0,0,0c-1.6,1.5-4.2,2.9-8,2.2c-7.2-1.3-12.9-5-21.7-6.2c-10.3-1.4-14.3,3.2-15.9,6.2
			c-4-0.7-7.2-4.2-7.2-8.4c0-4,2.9-7.4,6.7-8.2c-0.2-1-0.3-2.1-0.3-3.2c0-8.8,7.1-15.8,15.8-15.8c5.9,0,11.1,3.3,13.8,8.1
			c1.4-0.7,2.9-1.1,4.5-1.1h0c0,0,0,0,0,0c2.7,0,5.2,1.1,7.1,3c1.1,1.1,1.9,2.3,2.3,3.7c-1.4,0.3-6.7,1.5-10.4,6.1
			c3.6-1.9,8.2-2.6,10.9-1.2C59.6,27.8,60,28,60.2,28.1z"/>
	</g>
</g>
<rect x="-69" y="-50" class="st1" width="424.4" height="150.5"/>
</svg>
